<?xml version="1.0" encoding="UTF-8"?>
<svg id="layer_1" xmlns="http://www.w3.org/2000/svg" version="1.1" viewBox="0 0 629.19 1227.48">
  <defs>
    <style>
      .st0 {
        fill: #fff;
      }
    </style>
  </defs>
  <path class="st0" d="M553.35,0H75.84C34.02,0,0,34.05,0,75.84v1075.79c0,41.83,34.02,75.84,75.84,75.84h477.5c41.83,0,75.84-34.02,75.84-75.84V75.84c0-41.8-34.02-75.84-75.84-75.84ZM385.73,37.64h19.66c3.09,0,5.62,2.53,5.62,5.62s-2.53,5.62-5.62,5.62h-19.66c-3.12,0-5.62-2.53-5.62-5.62s2.5-5.62,5.62-5.62ZM223.82,37.64h132.42c3.09,0,5.62,2.53,5.62,5.62s-2.53,5.62-5.62,5.62h-132.42c-3.12,0-5.62-2.53-5.62-5.62s2.5-5.62,5.62-5.62ZM601.1,1151.66c0,26.35-21.38,47.75-47.75,47.75H75.87c-26.38,0-47.75-21.4-47.75-47.75V75.84c0-26.38,21.38-47.75,47.75-47.75h98.65l2.56,15.51c2.89,17.64,18.15,30.56,36.01,30.56h203.03c17.87,0,33.12-12.92,36.01-30.56l2.56-15.51h98.65c26.38,0,47.75,21.38,47.75,47.75v1075.82Z"/>
</svg>
